<svg fill="none" height="211" viewBox="0 0 211 211" width="211" xmlns="http://www.w3.org/2000/svg">
    <rect height="210" rx="19.5" stroke="#FF0037" stroke-dasharray="10 10" width="210" x="0.5"
        y="0.5" />
    <rect fill="white" height="201.973" rx="20" width="201.973" x="4.51331" y="4.51337" />
    <path
        d="M4.51331 24.5134C4.51331 13.4677 13.4676 4.51337 24.5133 4.51337H71.6497V71.6497H4.51331V24.5134Z"
        fill="#FF0037" />
    <path
        d="M139.35 4.51337H186.487C197.532 4.51337 206.487 13.4677 206.487 24.5134V71.6497H139.35V4.51337Z"
        fill="#FF9900" />
    <path d="M71.6497 4.51337H138.786V71.6497H71.6497V4.51337Z" fill="white" />
    <path d="M71.6497 71.6497H138.786V138.786H71.6497V71.6497Z" fill="#FF9900" />
    <path d="M139.35 71.6497H206.487V138.786H139.35V71.6497Z" fill="white" />
    <path d="M71.6497 138.786H138.786V205.922H71.6497V138.786Z" fill="white" />
    <path d="M4.51331 71.6497H71.6497V138.786H4.51331V71.6497Z" fill="white" />
    <path
        d="M139.35 139.35H206.487V186.487C206.487 197.532 197.532 206.487 186.487 206.487H139.35V139.35Z"
        fill="#FF0037" />
    <path
        d="M4.51331 139.35H71.6497V206.487H24.5133C13.4676 206.487 4.51331 197.532 4.51331 186.487V139.35Z"
        fill="#FF9900" />
    <line stroke="#010101" stroke-dasharray="5 5" stroke-width="2" x1="139.222" x2="139.222" y1="4.51337"
        y2="205.922" />
    <line stroke="#010101" stroke-dasharray="5 5" stroke-width="2" x1="72.6497" x2="72.6497" y1="4.51337"
        y2="205.922" />
    <line stroke="#010101" stroke-dasharray="5 5" stroke-width="2" x1="5.07751" x2="206.487" y1="70.6497"
        y2="70.6497" />
    <line stroke="#010101" stroke-dasharray="5 5" stroke-width="2" x1="5.07751" x2="206.487" y1="138.35"
        y2="138.35" />
    <path
        d="M169.251 27.1511C166.579 27.1511 164.017 28.2099 162.128 30.0947C160.238 31.9795 159.177 34.5358 159.177 37.2012C159.177 39.8667 160.238 42.423 162.128 44.3078C164.017 46.1925 166.579 47.2514 169.251 47.2514C171.923 47.2514 174.486 46.1925 176.375 44.3078C178.264 42.423 179.326 39.8667 179.326 37.2012C179.326 34.5358 178.264 31.9795 176.375 30.0947C174.486 28.2099 171.923 27.1511 169.251 27.1511ZM183.356 37.2012C183.356 40.9329 181.87 44.5117 179.224 47.1504C176.579 49.789 172.992 51.2714 169.251 51.2714C165.511 51.2714 161.923 49.789 159.278 47.1504C156.633 44.5117 155.147 40.9329 155.147 37.2012C155.147 33.4696 156.633 29.8908 159.278 27.2521C161.923 24.6134 165.511 23.131 169.251 23.131C172.992 23.131 176.579 24.6134 179.224 27.2521C181.87 29.8908 183.356 33.4696 183.356 37.2012Z"
        fill="white" />
    <g filter="url(#filter0_d_45_615)">
        <path
            d="M105.5 94.8516C102.828 94.8516 100.266 95.9105 98.3763 97.7952C96.487 99.68 95.4255 102.236 95.4255 104.902C95.4255 107.567 96.487 110.124 98.3763 112.008C100.266 113.893 102.828 114.952 105.5 114.952C108.172 114.952 110.734 113.893 112.624 112.008C114.513 110.124 115.575 107.567 115.575 104.902C115.575 102.236 114.513 99.68 112.624 97.7952C110.734 95.9105 108.172 94.8516 105.5 94.8516ZM119.604 104.902C119.604 108.633 118.118 112.212 115.473 114.851C112.828 117.49 109.241 118.972 105.5 118.972C101.759 118.972 98.1719 117.49 95.5268 114.851C92.8817 112.212 91.3958 108.633 91.3958 104.902C91.3958 101.17 92.8817 97.5913 95.5268 94.9526C98.1719 92.3139 101.759 90.8315 105.5 90.8315C109.241 90.8315 112.828 92.3139 115.473 94.9526C118.118 97.5913 119.604 101.17 119.604 104.902Z"
            fill="white" />
    </g>
    <g filter="url(#filter1_d_45_615)">
        <path
            d="M38.9278 161.424C36.2558 161.424 33.6934 162.483 31.804 164.367C29.9147 166.252 28.8533 168.808 28.8533 171.474C28.8533 174.139 29.9147 176.696 31.804 178.58C33.6934 180.465 36.2558 181.524 38.9278 181.524C41.5997 181.524 44.1622 180.465 46.0515 178.58C47.9408 176.696 49.0022 174.139 49.0022 171.474C49.0022 168.808 47.9408 166.252 46.0515 164.367C44.1622 162.483 41.5997 161.424 38.9278 161.424ZM53.032 171.474C53.032 175.206 51.5461 178.784 48.901 181.423C46.2559 184.062 42.6685 185.544 38.9278 185.544C35.1871 185.544 31.5996 184.062 28.9545 181.423C26.3095 178.784 24.8235 175.206 24.8235 171.474C24.8235 167.742 26.3095 164.163 28.9545 161.525C31.5996 158.886 35.1871 157.404 38.9278 157.404C42.6685 157.404 46.2559 158.886 48.901 161.525C51.5461 164.163 53.032 167.742 53.032 171.474Z"
            fill="white" />
    </g>
    <path
        d="M46.2242 26.9309L38.3639 34.7915C35.7439 32.1724 33.1231 29.5508 30.5027 26.9309C27.4714 23.8997 22.7726 28.6 25.8014 31.6321C28.4222 34.2503 31.0439 36.8723 33.6617 39.4922C31.0427 42.1133 28.4226 44.7334 25.8014 47.3524C22.7726 50.3828 27.4718 55.0818 30.5027 52.0535C33.1227 49.4328 35.7435 46.8116 38.3634 44.1926L46.2237 52.0535C49.2551 55.084 53.9551 50.3832 50.925 47.3524C48.3042 44.7316 45.6843 42.1117 43.0626 39.4914C45.6839 36.8706 48.3038 34.2499 50.925 31.6296C53.9555 28.6 49.2555 23.8997 46.2237 26.9326"
        fill="white" />
    <g filter="url(#filter2_d_45_615)">
        <path
            d="M181.061 159.511L173.201 167.372C170.581 164.753 167.96 162.131 165.34 159.511C162.308 156.48 157.61 161.18 160.638 164.212C163.259 166.831 165.881 169.453 168.499 172.072C165.88 174.694 163.259 177.314 160.638 179.933C157.61 182.963 162.309 187.662 165.34 184.634C167.96 182.013 170.58 179.392 173.2 176.773L181.061 184.634C184.092 187.664 188.792 182.963 185.762 179.933C183.141 177.312 180.521 174.692 177.9 172.072C180.521 169.451 183.141 166.83 185.762 164.21C188.792 161.18 184.092 156.48 181.061 159.513"
            fill="white" />
    </g>
    <defs>
        <filter color-interpolation-filters="sRGB" filterUnits="userSpaceOnUse" height="36.1404" id="filter0_d_45_615" width="36.2085"
            x="87.3958" y="90.8315">
            <feFlood flood-opacity="0" result="BackgroundImageFix" />
            <feColorMatrix in="SourceAlpha" result="hardAlpha"
                type="matrix" values="0 0 0 0 0 0 0 0 0 0 0 0 0 0 0 0 0 0 127 0" />
            <feOffset dy="4" />
            <feGaussianBlur stdDeviation="2" />
            <feComposite in2="hardAlpha" operator="out" />
            <feColorMatrix type="matrix" values="0 0 0 0 0 0 0 0 0 0 0 0 0 0 0 0 0 0 0.25 0" />
            <feBlend in2="BackgroundImageFix" mode="normal" result="effect1_dropShadow_45_615" />
            <feBlend in="SourceGraphic" in2="effect1_dropShadow_45_615" mode="normal"
                result="shape" />
        </filter>
        <filter color-interpolation-filters="sRGB" filterUnits="userSpaceOnUse" height="36.1404" id="filter1_d_45_615" width="36.2085"
            x="20.8235" y="157.404">
            <feFlood flood-opacity="0" result="BackgroundImageFix" />
            <feColorMatrix in="SourceAlpha" result="hardAlpha"
                type="matrix" values="0 0 0 0 0 0 0 0 0 0 0 0 0 0 0 0 0 0 127 0" />
            <feOffset dy="4" />
            <feGaussianBlur stdDeviation="2" />
            <feComposite in2="hardAlpha" operator="out" />
            <feColorMatrix type="matrix" values="0 0 0 0 0 0 0 0 0 0 0 0 0 0 0 0 0 0 0.25 0" />
            <feBlend in2="BackgroundImageFix" mode="normal" result="effect1_dropShadow_45_615" />
            <feBlend in="SourceGraphic" in2="effect1_dropShadow_45_615" mode="normal"
                result="shape" />
        </filter>
        <filter color-interpolation-filters="sRGB" filterUnits="userSpaceOnUse" height="35.0802" id="filter2_d_45_615" width="35.0803"
            x="155.66" y="158.532">
            <feFlood flood-opacity="0" result="BackgroundImageFix" />
            <feColorMatrix in="SourceAlpha" result="hardAlpha"
                type="matrix" values="0 0 0 0 0 0 0 0 0 0 0 0 0 0 0 0 0 0 127 0" />
            <feOffset dy="4" />
            <feGaussianBlur stdDeviation="2" />
            <feComposite in2="hardAlpha" operator="out" />
            <feColorMatrix type="matrix" values="0 0 0 0 0 0 0 0 0 0 0 0 0 0 0 0 0 0 0.25 0" />
            <feBlend in2="BackgroundImageFix" mode="normal" result="effect1_dropShadow_45_615" />
            <feBlend in="SourceGraphic" in2="effect1_dropShadow_45_615" mode="normal"
                result="shape" />
        </filter>
    </defs>
</svg>
