<svg width="131" height="131" viewBox="0 0 131 131" fill="none" xmlns="http://www.w3.org/2000/svg">
<path fill-rule="evenodd" clip-rule="evenodd" d="M0 65.5C0 48.1283 6.90087 31.4681 19.1845 19.1845C31.4681 6.90087 48.1283 0 65.5 0C82.8717 0 99.5319 6.90087 111.815 19.1845C124.099 31.4681 131 48.1283 131 65.5C131 82.8717 124.099 99.5319 111.815 111.815C99.5319 124.099 82.8717 131 65.5 131C48.1283 131 31.4681 124.099 19.1845 111.815C6.90087 99.5319 0 82.8717 0 65.5ZM34.9333 52.4H43.6667V43.6667H34.9333V52.4ZM87.3333 52.4H96.0667V43.6667H87.3333V52.4ZM42.7933 89.9533C45.4372 86.4282 48.8654 83.5671 52.8066 81.5965C56.7478 79.6259 61.0936 78.6 65.5 78.6C69.9064 78.6 74.2522 79.6259 78.1934 81.5965C82.1346 83.5671 85.5629 86.4282 88.2067 89.9533L95.1933 84.7133C80.3467 64.9149 50.6533 64.9149 35.8067 84.7133L42.7933 89.9533Z" fill="#FF9900"/>
</svg>
